<svg xmlns="http://www.w3.org/2000/svg" width="188" height="50" viewBox="0 0 188 50">
  <g fill="#231BB3">
    <path d="M166.166134 20.8530351L179.383387.958466454C180.035366-.0234693492 181.359915-.290953854 182.341853.361022364L182.341853.361022364C183.346581 1.02566031 184.045837 2.06249337 184.285548 3.24307008 184.525259 4.42364678 184.285755 5.65109074 183.619808 6.65495208L175.539936 18.8226837C174.948561 18.7485065 174.353196 18.7106294 173.757188 18.7092652 171.07654 18.7027594 168.447378 19.4452543 166.166134 20.8530351zM168.269968 2.80830671C168.390465 2.32000693 168.700023 1.89958336 169.130528 1.63954245 169.561034 1.37950155 170.077215 1.30114914 170.565495 1.42172524L170.565495 1.42172524C174.507987 2.40894569 173.63099 7.65175719 173.63099 7.65175719L163.407348 22.5079872 168.269968 2.80830671zM161.353035 9.66613419C161.485005 8.98817898 162.141502 8.54550834 162.819489 8.67731629L162.819489 8.67731629C165.448882 9.19968051 165.043131 12.6821086 165.043131 12.6821086L160.202875 29.1661342 161.353035 9.66613419zM3.79233227 49.201278L3.79233227 27.2044728 0 27.2044728 0 20.6693291 3.79233227 20.6693291 3.79233227 19.5607029C3.79233227 16.1166134 4.84345048 12.3242812 7.35303514 9.99041534 9.62779553 7.88977636 12.6629393 7.13099042 15.2891374 7.13099042 16.8629188 7.1356036 18.4303116 7.33139359 19.956869 7.71405751L19.6070288 14.5367412C18.6799812 14.2569288 17.7159198 14.1190519 16.7476038 14.1277955 13.8306709 14.1277955 12.6038339 16.4041534 12.6038339 19.2044728L12.6038339 20.6645367 18.3226837 20.6645367 18.3226837 27.2044728 12.6629393 27.2044728 12.6629393 49.201278 3.79233227 49.201278zM22.6405751 30.0638978C22.6405751 25.8626198 22.5830671 23.1198083 22.4073482 20.6693291L29.9936102 20.6693291 30.3514377 25.9792332 30.5846645 25.9792332C32.0447284 21.7779553 35.4872204 20.0271565 38.2875399 20.0271565 38.9144234 20.0188277 39.5404148 20.0771964 40.1549521 20.201278L40.1549521 28.5463259C39.3649479 28.3961321 38.5629253 28.3180686 37.7587859 28.313099 34.4920128 28.313099 32.2747604 30.0047923 31.6884984 32.8067093 31.5648326 33.460644 31.5065052 34.1252561 31.514377 34.7907348L31.514377 49.201278 22.6405751 49.201278 22.6405751 30.0638978zM67.9249201 42.3178914C67.9249201 45.0031949 68.0415335 47.6277955 68.3913738 49.2044728L60.3961661 49.2044728 59.8722045 46.3450479 59.6964856 46.3450479C57.827476 48.6198083 54.9121406 49.8402556 51.5271565 49.8402556 45.7492013 49.8402556 42.3067093 45.6389776 42.3067093 41.0878594 42.3067093 33.6773163 48.9600639 30.1757188 59.0543131 30.1757188L59.0543131 29.8258786C59.0543131 28.3083067 58.2380192 26.1517572 53.8610224 26.1517572 50.9440895 26.1517572 47.8498403 27.14377 45.9824281 28.2523962L44.3498403 22.5926518C46.3338658 21.4840256 50.2428115 20.0255591 55.4361022 20.0255591 64.9488818 20.0255591 67.9249201 25.6277955 67.9249201 32.3386581L67.9249201 42.3178914zM59.3467261 35.7236422C54.6773163 35.7236422 51.0607029 36.8322684 51.0607029 40.2172524 51.0607029 42.4936102 52.5766773 43.6022364 54.5607029 43.6022364 56.7204473 43.6022364 58.5878594 42.14377 59.1709265 40.3338658 59.290222 39.8368992 59.3492199 39.3273718 59.3466454 38.8162939L59.3467261 35.7236422zM84.4392971 12.9073482L84.4392971 20.6693291 90.8003195 20.6693291 90.8003195 27.2044728 84.4392971 27.2044728 84.4392971 37.5399361C84.4392971 40.9824281 85.3146965 42.557508 87.9408946 42.557508 89.1661342 42.557508 89.7492013 42.5 90.5670927 42.3242812L90.6246006 49.0335463C89.5159744 49.442492 87.35623 49.7923323 84.9057508 49.7923323 82.0463259 49.7923323 79.6549521 48.8003195 78.1964856 47.341853 76.5623003 45.6485623 75.7460064 42.9057508 75.7460064 38.8753994L75.7460064 27.2044728 71.9520767 27.2044728 71.9520767 20.6693291 75.7444089 20.6693291 75.7444089 15.3003195 84.4392971 12.9073482zM95.9345048 7.71405751L104.805112 7.71405751 104.805112 24.0527157 104.921725 24.0527157C106.613419 21.6022364 109.589457 20.0271565 113.557508 20.0271565 120.384984 20.0271565 125.345048 25.686901 125.28754 34.4408946 125.28754 44.7108626 118.809904 49.8450479 112.273163 49.8450479 108.947284 49.8450479 105.680511 48.6198083 103.696486 45.2364217L103.578275 45.2364217 103.228435 49.201278 95.701278 49.201278C95.8178914 47.3338658 95.9345048 43.8897764 95.9345048 40.6805112L95.9345048 7.71405751zM104.805112 37.0607029C104.798821 37.5913872 104.857293 38.1208571 104.979233 38.6373802 105.5623 40.971246 107.605431 42.8386581 110.172524 42.8386581 113.966454 42.8386581 116.300319 39.9201278 116.300319 34.7859425 116.300319 30.3514377 114.316294 26.8498403 110.172524 26.8498403 107.776358 26.8498403 105.5623 28.658147 104.979233 31.2252396 104.860665 31.7618083 104.802265 32.3099195 104.805112 32.8594249L104.805112 37.0607029zM137.658147 37.7667732C137.950479 41.4408946 141.567093 43.1980831 145.710863 43.1980831 148.746006 43.1980831 151.196486 42.7891374 153.589457 41.9728435L154.755591 47.9840256C151.838658 49.2092652 148.277955 49.7923323 144.426518 49.7923323 134.739617 49.7923323 129.196486 44.1900958 129.196486 35.2555911 129.196486 28.0191693 133.747604 20.0255591 143.610224 20.0255591 152.830671 20.0255591 156.330671 27.2028754 156.330671 34.2635783 156.331225 35.4368283 156.233977 36.6080828 156.039936 37.7651757L137.658147 37.7667732zM148.103834 31.6964856C148.103834 29.5367412 147.169329 25.9185304 143.151757 25.9185304 139.357827 25.9185304 137.841853 29.3626198 137.607029 31.6964856L148.103834 31.6964856z"/>
    <path d="M168.469649,37.7667732 C168.760383,41.4408946 172.378594,43.1980831 176.522364,43.1980831 C179.557508,43.1980831 182.007987,42.7891374 184.399361,41.9728435 L185.567093,47.9840256 C182.65016,49.2092652 179.089457,49.7923323 175.238019,49.7923323 C165.551118,49.7923323 160.007987,44.1900958 160.007987,35.2555911 C160.007987,28.0191693 164.559105,20.0255591 174.421725,20.0255591 C183.640575,20.0255591 187.142173,27.2028754 187.142173,34.2635783 C187.142727,35.4368283 187.045478,36.6080828 186.851438,37.7651757 L168.469649,37.7667732 Z M178.915335,31.6964856 C178.915335,29.5367412 177.980831,25.9185304 173.963259,25.9185304 C170.169329,25.9185304 168.651757,29.3626198 168.41853,31.6964856 L178.915335,31.6964856 Z"/>
  </g>
</svg>
